<?xml version="1.0" standalone="no"?>
<!DOCTYPE svg PUBLIC "-//W3C//DTD SVG 20010904//EN"
 "http://www.w3.org/TR/2001/REC-SVG-20010904/DTD/svg10.dtd">
<svg version="1.0" xmlns="http://www.w3.org/2000/svg"
 width="1024.000000pt" height="1024.000000pt" viewBox="0 0 1024.000000 1024.000000"
 preserveAspectRatio="xMidYMid meet">
<metadata>
Created by potrace 1.11, written by Peter Selinger 2001-2013
</metadata>
<g transform="translate(0.000000,1024.000000) scale(0.100000,-0.100000)"
fill="#000000" stroke="none">
<path d="M830 4925 l0 -3875 4235 0 4235 0 0 3875 0 3875 -4235 0 -4235 0 0
-3875z m3439 2929 c-111 -192 -202 -353 -202 -359 0 -5 120 -217 266 -470
l266 -460 539 -3 539 -2 145 252 c80 139 202 350 270 468 l124 215 -207 360
c-114 198 -206 361 -205 363 5 4 302 -73 365 -96 l54 -18 174 -300 c95 -164
173 -303 173 -308 0 -5 -161 -287 -357 -627 l-357 -619 -717 0 -717 0 -218
378 c-120 207 -281 487 -359 622 l-142 246 176 304 176 305 55 18 c97 33 355
96 358 88 1 -4 -88 -165 -199 -357z m-471 -57 l-153 -266 -310 0 -310 0 35 30
c113 99 367 262 552 355 113 57 331 154 336 149 1 -1 -66 -122 -150 -268z
m2875 115 c153 -78 360 -208 498 -313 43 -33 79 -62 79 -64 0 -3 -138 -5 -308
-5 l-307 0 -153 264 c-83 145 -152 266 -152 269 0 11 195 -75 343 -151z m826
-607 l156 -155 -421 0 -421 0 -258 -447 c-142 -247 -264 -457 -271 -468 -11
-18 15 -68 256 -485 l269 -465 543 -2 543 -2 188 327 c103 180 197 343 209
362 l21 35 14 -40 c21 -58 93 -342 93 -365 0 -11 -79 -157 -176 -325 l-176
-305 -717 0 -716 0 -355 616 c-195 339 -356 619 -358 623 -2 6 655 1153 704
1229 l14 22 352 0 351 0 156 -155z m-3634 -238 c121 -210 281 -488 356 -618
l136 -236 -358 -619 -357 -619 -715 -3 -714 -2 -177 306 c-97 168 -176 314
-176 325 0 22 72 307 92 363 l14 38 208 -361 209 -361 544 2 545 3 268 465
c241 417 268 467 256 485 -7 11 -129 221 -270 468 l-258 447 -414 0 c-228 0
-414 4 -414 8 0 5 65 72 144 150 l144 142 358 0 359 0 220 -383z m2348 -1506
c196 -340 357 -623 357 -629 0 -6 -159 -286 -354 -624 l-354 -613 -723 0 -723
0 -357 619 -357 618 142 247 c78 135 240 416 360 624 l218 377 717 0 717 0
357 -619z m-4214 -367 l151 -262 -157 -272 c-116 -201 -159 -267 -164 -253
-45 125 -48 815 -3 1036 3 16 10 25 14 20 5 -4 76 -126 159 -269z m6472 119
c18 -140 19 -634 1 -758 -21 -154 -24 -167 -32 -158 -4 4 -76 126 -159 271
-136 235 -150 264 -140 285 17 33 268 468 287 497 l16 25 7 -27 c4 -15 13 -75
20 -135z m-2255 -2322 c195 -338 353 -620 352 -627 -2 -6 -79 -145 -173 -308
l-170 -296 -78 -25 c-105 -34 -317 -87 -332 -83 -7 2 74 151 192 353 126 217
202 358 199 370 -2 11 -120 223 -264 470 l-260 450 -543 0 -543 0 -267 -463
-268 -463 206 -355 c113 -195 202 -358 199 -361 -7 -7 -191 37 -316 76 l-95
30 -172 300 c-95 164 -173 304 -173 311 0 9 559 985 677 1183 l35 57 719 -2
720 -3 355 -614z m-2419 -923 c83 -145 150 -264 148 -266 -10 -11 -346 147
-490 231 -125 72 -283 181 -415 284 -12 10 50 12 295 13 l311 0 151 -262z
m3392 212 c-155 -122 -358 -249 -548 -345 -127 -63 -301 -139 -307 -133 -2 3
64 122 147 266 l151 262 311 0 311 0 -65 -50z"/>
<path d="M4586 5838 c-8 -13 -123 -212 -256 -443 -133 -231 -248 -429 -255
-441 -12 -19 11 -63 255 -485 l268 -464 540 -3 539 -2 264 457 c145 252 264
467 263 478 0 11 -118 223 -261 470 l-261 450 -541 3 -540 2 -15 -22z"/>
<path d="M9410 7273 l0 -523 300 0 c165 0 300 2 300 4 0 2 -130 228 -288 502
-159 274 -294 508 -300 519 -9 15 -11 -107 -12 -502z"/>
<path d="M9410 3826 l0 -414 333 5 c182 2 334 5 338 6 3 1 -101 185 -230 410
l-236 407 -102 0 -103 0 0 -414z"/>
</g>
</svg>
